<svg width="94" height="94" viewBox="0 0 94 94" fill="none" xmlns="http://www.w3.org/2000/svg">
<path d="M37.4161 93.0227C17.7051 88.9365 2.51473 72.5117 0.285889 52.1835C0.971686 52.212 1.69177 52.2406 2.44615 52.2692C4.16636 52.3263 6.59523 52.4178 7.87538 52.635C7.74965 53.978 7.27531 56.3897 6.93813 58.1099C6.00658 62.8419 5.46366 65.8308 6.0123 67.5339C6.45235 68.9112 7.66964 69.637 10.3385 71.2201C15.0705 74.0318 24.3745 79.5639 37.4161 93.0227Z" fill="#4A90E2"/>
<path d="M16.1277 44.7197L16.1791 45.0969C16.5677 47.7944 16.8535 49.7432 17.6136 50.3033C18.0651 50.6347 18.9509 50.7319 20.3625 50.6005C18.8594 48.7145 17.4307 46.72 16.1277 44.7197ZM44.754 77.1751C41.2736 72.1917 37.8217 67.4082 26.7633 57.5042C25.3574 56.2411 23.9286 54.7838 22.5399 53.2008C19.6824 53.6637 17.4593 53.7323 15.9277 52.6064C14.196 51.3377 13.876 49.1431 13.3502 45.5084L13.293 45.0912C13.013 43.1653 12.8644 41.1765 12.8473 39.0905C11.5557 36.5702 10.5899 34.2042 10.0927 32.1925C8.71535 26.6261 8.7382 22.2027 9.44686 18.7394C3.51471 26.6033 0 36.393 0 47C0 47.9716 0.0285749 48.9317 0.0914397 49.8861C4.70914 50.109 9.78405 50.029 10.1212 51.2863C10.7099 53.4694 7.42947 64.4821 8.18957 66.8367C8.78393 68.6941 20.1796 71.9173 39.2676 91.6455C40.7935 86.9477 42.8338 82.8044 45.6341 78.461C45.3484 78.0381 45.0569 77.6095 44.754 77.1751ZM41.0736 93.5428C41.0621 93.5714 41.0564 93.6 41.0507 93.6286C41.085 93.6286 41.125 93.6343 41.165 93.64C41.1307 93.6057 41.1021 93.5714 41.0736 93.5428ZM52.9264 93.5371C52.8979 93.5714 52.8636 93.6057 52.8293 93.64C52.8693 93.6343 52.9093 93.6343 52.9493 93.6286C52.9493 93.5943 52.9379 93.5657 52.9264 93.5371ZM91.554 52.2692C89.8281 52.3264 87.3992 52.4178 86.119 52.635C86.2505 53.978 86.7248 56.3897 87.062 58.1099C87.9936 62.8419 88.5365 65.8309 87.9878 67.5339C87.5421 68.9113 86.3305 69.6371 83.6616 71.2201C78.9296 74.0319 69.6256 79.564 56.5783 93.0228C76.295 88.9423 91.4854 72.5117 93.7142 52.1835C93.0285 52.2121 92.3084 52.2407 91.554 52.2692Z" fill="#4A90E2"/>
<path d="M52.4522 44.5597C55.5097 46.3771 62.9906 50.8348 68.9227 52.6064C67.854 53.7723 66.7739 54.8467 65.7109 55.8011C54.1438 66.1623 50.6977 71.0944 47.3715 75.8664C47.2458 76.0436 47.1201 76.2264 47.0001 76.4036C46.88 76.2264 46.7543 76.0436 46.6286 75.8664C43.2968 71.0944 39.8563 66.1623 28.2892 55.8011C27.2262 54.8467 26.1461 53.7723 25.0774 52.6064C31.0095 50.8348 38.4905 46.3771 41.548 44.5597C41.628 44.5083 41.7137 44.4626 41.7937 44.4111C41.9823 44.5654 42.2109 44.6969 42.4967 44.7655C42.6224 44.794 43.011 44.8912 47.0001 44.8969C50.9891 44.8969 51.372 44.794 51.4978 44.7655C51.7835 44.6969 52.0178 44.5654 52.2064 44.4111C52.2864 44.4569 52.3664 44.5083 52.4522 44.5597Z" fill="#E2E2E2"/>
<path d="M78.2894 39.6105C76.3178 43.1481 73.7517 46.8971 71.0143 50.2061C65.3736 48.926 56.8182 43.8339 53.915 42.1023C52.6006 41.325 52.3148 41.1479 51.9491 41.1479C51.8748 41.1479 51.8005 41.1593 51.7091 41.165C51.0633 41.245 50.6861 41.6736 50.4803 41.988C49.8345 42.0108 48.6001 42.0337 46.9999 42.0394C45.3997 42.0394 44.1653 42.0108 43.5195 41.988C43.308 41.6679 42.9423 41.245 42.2908 41.165C41.765 41.1021 41.6678 41.1593 40.0848 42.1023C37.1759 43.8339 28.6262 48.926 22.9856 50.2061C20.2481 46.8971 17.6821 43.1481 15.7104 39.6105C15.6647 37.5417 15.7504 35.3643 15.9733 33.0497C16.4705 27.6948 17.4192 24.5916 17.9735 23.9801C19.6652 23.8258 27.7176 26.4718 30.5236 27.7291C33.1182 28.8892 37.1701 31.5181 39.5933 33.0897C41.725 34.4728 41.765 34.4956 42.2565 34.5071C43.1423 34.5071 43.5823 33.8384 43.7709 33.5241C44.0053 33.5184 44.331 33.5126 44.7882 33.5012C45.4169 33.4841 46.2055 33.4669 46.9828 33.4555C47.7943 33.4669 48.583 33.4841 49.2116 33.5012C49.6688 33.5126 49.9888 33.5184 50.2289 33.5241C50.4175 33.8384 50.8461 34.5071 51.7433 34.5071C52.2291 34.4956 52.2748 34.4728 54.4065 33.0897C56.8297 31.5181 60.8816 28.8892 63.4762 27.7291C66.2937 26.4661 74.3975 23.7972 76.0263 23.9743C76.6549 24.643 77.5522 27.9748 78.0265 33.0497C78.2494 35.37 78.3351 37.5417 78.2894 39.6105Z" fill="#E2E2E2"/>
<path d="M81.6898 31.6439C81.5126 32.3582 81.2726 33.1183 80.9697 33.9241C80.9411 33.5469 80.9068 33.164 80.8726 32.7811C79.8782 22.1456 77.735 21.494 76.9292 21.2483C74.0774 20.3911 62.4189 25.0716 62.3103 25.1231C59.5157 26.3689 55.3437 29.0721 52.852 30.6895C52.572 30.8723 52.2977 31.0495 52.0405 31.2152C51.7033 30.8952 51.2232 30.6323 50.5546 30.6666C50.4289 30.6723 49.8459 30.6552 49.2801 30.6437C48.6401 30.6266 47.84 30.6094 46.9827 30.598C46.154 30.6094 45.3597 30.6266 44.7196 30.6437C44.1538 30.6552 43.5709 30.6666 43.4451 30.6666C42.7822 30.6323 42.2964 30.8952 41.9535 31.2152C41.7021 31.0495 41.4278 30.8723 41.1477 30.6895C38.656 29.0721 34.4841 26.3689 31.6894 25.1231C31.5808 25.0716 19.9223 20.3911 17.0705 21.2483C16.259 21.494 14.1159 22.1456 13.1272 32.7811C13.0929 33.164 13.0586 33.5469 13.03 33.9241C12.7271 33.1183 12.4871 32.3582 12.3099 31.6439C10.0811 22.6656 11.7441 17.0421 13.7844 13.7502C22.2883 5.25778 34.0326 0 46.9999 0C59.9672 0 71.7 5.25207 80.2039 13.7388C82.2499 17.0306 83.9186 22.6542 81.6898 31.6439Z" fill="#E2E2E2"/>
<path d="M52.9264 93.5371C52.8979 93.5714 52.8636 93.6057 52.8293 93.64C52.8693 93.6343 52.9093 93.6343 52.9493 93.6286C52.9493 93.5943 52.9379 93.5657 52.9264 93.5371ZM41.0736 93.5428C41.0621 93.5714 41.0564 93.6 41.0507 93.6286C41.085 93.6286 41.125 93.6343 41.165 93.64C41.1307 93.6057 41.1021 93.5714 41.0736 93.5428ZM16.1277 44.7197L16.1791 45.0969C16.5677 47.7944 16.8535 49.7432 17.6136 50.3033C18.0651 50.6347 18.9509 50.7319 20.3625 50.6005C18.8594 48.7145 17.4307 46.72 16.1277 44.7197ZM44.754 77.1751C41.2736 72.1917 37.8217 67.4082 26.7633 57.5042C25.3574 56.2411 23.9286 54.7838 22.5399 53.2008C19.6824 53.6637 17.4593 53.7323 15.9277 52.6064C14.196 51.3377 13.876 49.1431 13.3502 45.5084L13.293 45.0912C13.013 43.1653 12.8644 41.1765 12.8473 39.0905C11.5557 36.5702 10.5899 34.2042 10.0927 32.1925C8.71535 26.6261 8.73821 22.2027 9.44686 18.7394C3.51471 26.6033 0 36.393 0 47C0 47.9716 0.0285749 48.9317 0.0914397 49.8861C4.70914 50.109 9.78405 50.029 10.1212 51.2863C10.7099 53.4694 7.42948 64.4821 8.18957 66.8367C8.78393 68.6941 20.1796 71.9173 39.2676 91.6455C40.7935 86.9477 42.8338 82.8044 45.6341 78.461C45.3484 78.0381 45.0569 77.6095 44.754 77.1751Z" fill="#4A90E2"/>
<path d="M41.0736 93.5428C41.0622 93.5714 41.0565 93.6 41.0508 93.6286C41.0851 93.6286 41.1251 93.6343 41.1651 93.64C41.1308 93.6057 41.1022 93.5714 41.0736 93.5428Z" fill="#4A90E2"/>
<path d="M73.6377 50.6005C75.1407 48.7088 76.5752 46.7143 77.8725 44.7083L77.8211 45.0969C77.4324 47.7944 77.1467 49.7432 76.3809 50.3033C75.9351 50.6347 75.0493 50.7319 73.6377 50.6005Z" fill="#4A90E2"/>
<path d="M83.8789 51.2863C83.2903 53.4694 86.565 64.4821 85.8106 66.8367C85.2162 68.6941 73.8206 71.9173 54.7325 91.6455C54.4354 91.9541 54.1325 92.2684 53.8296 92.5884C53.5324 92.9027 53.2295 93.2171 52.9266 93.5371C52.898 93.5714 52.8637 93.6057 52.8294 93.64C50.9206 93.88 48.9775 94 47.0002 94C45.0228 94 43.074 93.88 41.1652 93.64C41.1309 93.6057 41.1023 93.5714 41.0737 93.5428C42.491 88.8451 44.3827 84.7703 47.0002 80.5698C47.2173 80.2155 47.4459 79.8612 47.6745 79.5068C47.8974 79.1639 48.1317 78.8153 48.366 78.461C48.6518 78.0381 48.9433 77.6095 49.2462 77.1751C52.7209 72.1917 56.1784 67.4082 67.2369 57.5042C68.6428 56.2411 70.0715 54.7838 71.4603 53.2008C72.6433 53.3894 73.7177 53.5151 74.6778 53.5151C76.038 53.5151 77.1695 53.2694 78.0725 52.6064C79.8041 51.3377 80.1242 49.1431 80.65 45.5084L80.7071 45.0855C80.9872 43.1653 81.13 41.1765 81.1529 39.0905C82.4445 36.5702 83.4103 34.2042 83.9075 32.1925C85.2848 26.6261 85.262 22.2027 84.5533 18.7394C90.4854 26.6033 94.0002 36.393 94.0002 47C94.0002 47.9716 93.9716 48.9317 93.9087 49.8861C89.291 50.109 84.2161 50.0232 83.8789 51.2863Z" fill="#4A90E2"/>
<path d="M41.0736 93.5428C41.1022 93.5714 41.1308 93.6057 41.1651 93.64C41.1251 93.6343 41.0851 93.6286 41.0508 93.6286C41.0565 93.6 41.0622 93.5714 41.0736 93.5428Z" fill="#4A90E2"/>
<path d="M52.9494 93.6286C52.9094 93.6343 52.8694 93.6343 52.8293 93.64C52.8636 93.6057 52.8979 93.5714 52.9265 93.5371C52.9379 93.5657 52.9436 93.5943 52.9494 93.6286Z" fill="#4A90E2"/>
<path d="M52.9265 93.5371C52.8979 93.5714 52.8636 93.6057 52.8293 93.64C52.8694 93.6343 52.9094 93.6343 52.9494 93.6286C52.9494 93.5943 52.9379 93.5657 52.9265 93.5371Z" fill="#4A90E2"/>
<path d="M78.2894 39.6105C78.2494 41.3707 78.1123 43.051 77.8779 44.6797V44.7083L77.8208 45.0969C77.4322 47.7944 77.1464 49.7432 76.3806 50.3033C75.9348 50.6347 75.049 50.7319 73.6374 50.6004C73.1117 50.5547 72.5116 50.4747 71.8372 50.3661C71.5686 50.3204 71.2943 50.269 71.0143 50.2061C65.3736 48.926 56.8182 43.8339 53.915 42.1023C52.6006 41.325 52.3148 41.1479 51.9491 41.1479C51.8748 41.1479 51.8005 41.1593 51.7091 41.165C51.0633 41.245 50.6861 41.6736 50.4803 41.988C49.8345 42.0108 48.6001 42.0337 46.9999 42.0394C45.3997 42.0394 44.1653 42.0108 43.5195 41.988C43.308 41.6679 42.9423 41.245 42.2908 41.165C41.765 41.1021 41.6678 41.1593 40.0848 42.1023C37.1759 43.8339 28.6262 48.926 22.9856 50.2061C22.7055 50.269 22.4312 50.3204 22.1626 50.3661C21.4882 50.4747 20.8882 50.5547 20.3624 50.6004C18.9508 50.7319 18.065 50.6347 17.6135 50.3033C16.8534 49.7432 16.5676 47.7944 16.179 45.0969L16.1276 44.7197V44.6797C15.8875 43.051 15.7504 41.3707 15.7104 39.6105C15.6647 37.5417 15.7504 35.3643 15.9733 33.0497C16.4705 27.6948 17.4192 24.5916 17.9735 23.9801C19.6652 23.8258 27.7176 26.4718 30.5236 27.7291C33.1182 28.8892 37.1701 31.5181 39.5933 33.0897C41.725 34.4728 41.765 34.4956 42.2565 34.5071C43.1423 34.5071 43.5823 33.8384 43.7709 33.5241C44.0053 33.5184 44.331 33.5126 44.7882 33.5012C45.4169 33.4841 46.2055 33.4669 46.9828 33.4555C47.7943 33.4669 48.583 33.4841 49.2116 33.5012C49.6688 33.5126 49.9888 33.5184 50.2289 33.5241C50.4175 33.8384 50.8461 34.5071 51.7433 34.5071C52.2291 34.4956 52.2748 34.4728 54.4065 33.0897C56.8297 31.5181 60.8816 28.8892 63.4762 27.7291C66.2937 26.4661 74.3975 23.7972 76.0263 23.9743C76.6549 24.643 77.5522 27.9748 78.0265 33.0497C78.2494 35.37 78.3351 37.5417 78.2894 39.6105Z" fill="#4A90E2"/>
</svg>
